<svg xmlns="http://www.w3.org/2000/svg">
  <symbol id="documentation-icon" viewBox="0 0 24 24">
    <path fill="currentColor" d="M6 2h9l5 5v15H6z" />
  </symbol>
  <symbol id="social-icon" viewBox="0 0 24 24">
    <circle cx="12" cy="12" r="10" fill="currentColor" />
  </symbol>
  <symbol id="github-icon" viewBox="0 0 24 24">
    <path fill="currentColor" d="M12 2a10 10 0 0 0-3.16 19.5c.5.1.66-.22.66-.48v-1.7c-2.68.58-3.25-1.15-3.25-1.15-.44-1.12-1.08-1.42-1.08-1.42-.88-.6.07-.59.07-.59.97.07 1.48.99 1.48.99.87 1.48 2.28 1.05 2.83.8.09-.63.34-1.05.62-1.29-2.14-.24-4.39-1.07-4.39-4.75 0-1.05.38-1.92 1.01-2.6-.1-.25-.44-1.27.1-2.64 0 0 .82-.26 2.7 1a9.3 9.3 0 0 1 4.92 0c1.88-1.26 2.7-1 2.7-1 .54 1.37.2 2.39.1 2.64.63.68 1.01 1.55 1.01 2.6 0 3.69-2.25 4.51-4.4 4.75.35.3.66.89.66 1.8v2.67c0 .26.16.58.67.48A10 10 0 0 0 12 2z"/>
  </symbol>
  <symbol id="discord-icon" viewBox="0 0 24 24">
    <path fill="currentColor" d="M20 4s-1.5-1.2-3.6-1.4l-.2.4a13 13 0 0 1 2.8 1.4A11.4 11.4 0 0 0 17 4.1 11.2 11.2 0 0 0 12 3a11.2 11.2 0 0 0-5 1.1c-.7.2-1.4.4-2 .6a13 13 0 0 1 2.8-1.4l-.2-.4C5.5 2.8 4 4 4 4S1.8 7 1.7 12c.6 2 1.9 3.9 3.7 5.1l.6-1A9.2 9.2 0 0 1 3.9 14s.3.2.8.4c0 0 .1.1.2.1 0 0 .1 0 .2-.1.4-.2.8-.5 1.1-.8a13.3 13.3 0 0 0 7.8 2.5 13.3 13.3 0 0 0 7.8-2.5c.3.3.7.6 1.1.8.1.1.2.1.2.1.1 0 .2 0 .2-.1.5-.2.8-.4.8-.4a9.2 9.2 0 0 1-2.8 2.1l.6 1c1.8-1.2 3.1-3.1 3.7-5.1C22.2 7 20 4 20 4ZM9.1 13.1c-.8 0-1.4-.8-1.4-1.8S8.3 9.5 9.1 9.5s1.4.8 1.4 1.8-.6 1.8-1.4 1.8Zm5.8 0c-.8 0-1.4-.8-1.4-1.8s.6-1.8 1.4-1.8 1.4.8 1.4 1.8-.6 1.8-1.4 1.8Z"/>
  </symbol>
  <symbol id="x-icon" viewBox="0 0 24 24">
    <path fill="currentColor" d="M18.9 2H22l-6.8 7.8L23 22h-6.6l-5.2-6.7L5.4 22H2l7.3-8.4L1 2h6.8l4.7 6.1L18.9 2Zm-1.2 18h1.7L6 3.9H4.2L17.7 20Z"/>
  </symbol>
  <symbol id="bluesky-icon" viewBox="0 0 24 24">
    <path fill="currentColor" d="M12 11.2c-1.8-3.5-6.7-6.2-6.7-2.4 0 4.9 5.4 5.1 6.7 2.4Zm0 0c1.8-3.5 6.7-6.2 6.7-2.4 0 4.9-5.4 5.1-6.7 2.4ZM12 13.5c-2.1 0-7.4 1.1-7.4 4.1 0 2.9 4.7 4 7.4 1.6 2.7 2.4 7.4 1.3 7.4-1.6 0-3-5.3-4.1-7.4-4.1Z"/>
  </symbol>
</svg>
